<svg xmlns="http://www.w3.org/2000/svg" viewBox="0 0 268.53 184.26">
  <defs>
    <style>
      .cls-1 {
        fill: #030303;
      }

      .cls-2 {
        font-size: 49.62px;
        font-family: FZSTK--GBK1-0, FZShuTi;
      }
    </style>
  </defs>
  <g id="圖層_2" data-name="圖層 2">
    <g id="圖層_1-2" data-name="圖層 1">
      <g>
        <g>
          <g>
            <path class="cls-1" d="M139.29,105.69c-3.63-6.13-3.71-42.32-.27-48.81a20.77,20.77,0,0,0-10.33-.12c2.43,3.22,4.44,16.53,2.42,20.28a7.64,7.64,0,0,1-1.4,1.93c-2.43.19-5.77.44-7.33.44s-5.91-.36-8.09-.56a5.35,5.35,0,0,1-.47-1.95c-.5-6.71-1.91-14,2-20.28a25.74,25.74,0,0,0-10.75.23c3.71,4.61,4.45,40.37,1.31,48.93h9.34c-1.94-3.82-3.44-19-1.89-22.08a5.74,5.74,0,0,1,.62-1c2-.21,5.59-.53,7.19-.53,1.87,0,6.72.35,9.27.55a3.51,3.51,0,0,1,.39,1.8c-.06,7.13,1.77,14.75-2.16,21.19Z"/>
            <path d="M159.72,93c-2.08,4.9-4.83,7.23-7.6,9.5l-13-.25h0c0-2,0-4,0-6-.09-18.41.64-19.39,11.21-15,1.09,1.1.84,4.4,2.73,4.67,1.14-3.35.4-7.14.57-10.69.06-1.41.29-3.53-.76-3.79-1.3-.33-1.24,2.24-1.71,3.64-10.49,5.65-12.3,3.41-11.94-14.85,5.43-2.15,10.75-2.7,15.73,2.79,1.12,1.24,2.31,5,3.44,2.76,1.26-2.48-.69-5.29-1.61-7.62-.83-2.08-2.26-2-3.54-2-5,.22-10,.56-15,.85-1.76.58-4.91-2.87-4.3,4.53-.08,10-.26,20.06-.19,30.09,0,5.24.18,10.22-3.26,13.32,8.76.65,17.22.71,25.67.59,1.6,0,2.68-1.69,2.85-4.69C159.43,98.72,160.68,96.9,159.72,93Z"/>
            <path class="cls-1" d="M109.76,104.39c-.94,1.46-2.09,1.76-3.43.94C94.3,98,82.17,98.81,70,104.65a1.43,1.43,0,0,1-2-.45c.83-3.19,3.09-5.29,4.43-8.15C75.78,89,79.22,82,82.68,75c1.58-3.16.55-3.93-1.93-3.77a40.19,40.19,0,0,1-4.25,0c-.86,0-2,.2-2.08-1.4a2.1,2.1,0,0,1,2-2.44c2.19-.13,4.38-.12,6.57-.12,1.3,0,2.66.14,3.53-1.34.66-1.11,1.85-2.18,1.33-3.74S86,61.44,85,61.38c-1.67-.12-3.35,0-5-.07-.88,0-2,.09-2.08-1.43a2.15,2.15,0,0,1,2-2.39c2.57-.14,5.15-.09,7.73-.13,1.28,0,2.75.34,3.68-1,5.07-7,10.77-13.2,16.27-19.64-.18-.36-.37-.71-.55-1.06l-6.76,3.11C94,41.73,87.62,42.61,81,40.46c-2.38-.77-4.87-2.62-7.24.24-.36.43-1,.3-1.38-.28a2.07,2.07,0,0,1,.08-2.22c2.36-4,4.71-8.06,7.15-12,1.19-1.91,2.54-.79,3.78.1a32.86,32.86,0,0,0,10.71,5.36c5.67,1.46,11-.05,16.17-2.93,1.73-1,3.48-1.89,5.54-3,.3,2.79-1,4.32-1.87,5.92-3.61,6.9-6.22,14.44-9.17,21.76-1.17,2.9-.71,4.22,2,4a37.48,37.48,0,0,1,4.24,0c.88,0,2,0,2,1.51a2.06,2.06,0,0,1-2,2.35c-2.19.07-4.38,0-6.57,0-1.27,0-2.69-.26-3.49,1.39-.52,1.07-1.27,2.37-1.14,3.43.2,1.7,1.66,1,2.6,1.07,1.54.11,3.09,0,4.63,0,1.06.06,2.67-.56,2.68,1.62s-1.48,2.37-2.83,2.39a64.42,64.42,0,0,1-7-.05c-2.28-.22-3.81.69-5.24,3-4.59,7.41-10.08,13.76-15.63,20-.45.5-.83,1.1-1.65,2.2,3.25.14,5.4-1.7,7.67-2.78,8.52-4.06,17-4.79,25.6-.37"/>
            <path class="cls-1" d="M99.92,105.78c1.61,22.8-20.31,38.82-41.9,35.09-27.39-4.7-40.4-36.67-20.88-57.61a35,35,0,0,1,28-10.56c-12.8,1.09-25.11,9-30,21a30.31,30.31,0,0,0,7.65,33.64c20.24,18.7,54.6,6.4,57.15-21.6Z"/>
            <path class="cls-1" d="M128.18,105.78c2.56,28,36.91,40.3,57.15,21.6A30.33,30.33,0,0,0,193,93.74c-4.91-12.07-17.21-19.95-30-21a35,35,0,0,1,28,10.56c19.52,20.95,6.51,52.91-20.88,57.61-21.59,3.73-43.52-12.3-41.9-35.09Z"/>
          </g>
          <g>
            <path class="cls-1" d="M186.12,26.3A48,48,0,0,0,172,3.84c-1.56-1.52-3.25-2.93-5.54-2.78s-4.47.22-6.67.45A62.6,62.6,0,0,0,140.6,7c-6,3.09-12.15,6.42-18.9,7.74-3.59.93-7.45.95-11,1.66l0,0a.63.63,0,0,0,.28-.49c0-.11,0-.19,0-.14,1,1.55,3.9,2.46,5.63,3.44,9.33,4.64,21.23,9,31.2,12.31,13.73,4.93,27.3,10.26,41.3,14.36l3.22.85c1.86.41,4.34,1.39,6.12,1.1.22,0,.37-.14.34-.1a.36.36,0,0,0-.07.24c-.15-.6-2.48-3.1-3-3.77a47.06,47.06,0,0,1-9.53-17.9Zm.34-.1a40.3,40.3,0,0,0,10.2,17.08c.79.88,3,2.75,3.6,3.93a1.58,1.58,0,0,1-.18,1.76,2.71,2.71,0,0,1-1.15.67c-2.67.66-4.66-.23-7.16-.54-15.64-2.72-30.45-8.74-45.22-14.29-10-3.69-21.85-8.3-31.26-13.22-2.23-1.28-4.16-1.8-6.11-3.84a3,3,0,0,1-.79-2.05c.36-2.57,4.44-2,6.28-2.31a52.93,52.93,0,0,0,19-5.15,76.2,76.2,0,0,1,12.49-5.43A59.32,59.32,0,0,1,163,.05c2.27,0,4.85-.39,6.85,1A52.43,52.43,0,0,1,186.46,26.2Z"/>
            <path class="cls-1" d="M154.36,1.38A37.57,37.57,0,0,0,165.8,6.71c2,.55,4.09.65,6.06,1.2A43.61,43.61,0,0,1,178,10v.35c-6.56,3-13.55-.57-19-4.24a27.66,27.66,0,0,1-4.91-4.44l.25-.25Z"/>
            <path class="cls-1" d="M158.74,5a73.29,73.29,0,0,0-15.68,10.52c-2.46,2.21-3.66,5.13-6.3,7.18s-6.15,3.82-9.62,3.1v-.35a21.92,21.92,0,0,0,7.22-5.35A43.11,43.11,0,0,1,149.63,8.28a70.15,70.15,0,0,1,9-3.61l.13.33Z"/>
            <path class="cls-1" d="M165.08,8q-2.36,7.14-5,14.15c-1.52,4.84-3.57,9.52-7.28,13.13l-.32-.15c.24-5.17,2.4-9.8,5-14.14q3.48-6.64,7.28-13.13l.32.14Z"/>
            <path class="cls-1" d="M173.44,9.85C177.82,19,177,29.71,176.29,39.5a12.87,12.87,0,0,0,.36,4l-.24.26a7.06,7.06,0,0,1-2.57-3.92c-1.56-4.29-.57-8.85.18-13.13A47.63,47.63,0,0,0,173.11,10l.33-.13Z"/>
            <path class="cls-1" d="M178.27,44.29c-4.55,9-23.66,5.54-31.47,2.86l1-2.68.71.23-1,2.73c-7.74-2.49-15.68-6.35-20-13.61-1.41-2.36-2.27-5.78-.59-8.19l.32.15C125.45,33.72,142.33,42,148.48,44.7l-1,2.73-.69-.28,1-2.68c7.93,3,19.3,6.06,27.36,2.36A6.52,6.52,0,0,0,178,44.15l.32.14Z"/>
          </g>
        </g>
        <text class="cls-2" transform="translate(68.27 177.09) scale(1.01 1)">騎車哲人</text>
        <path d="M0,138.76c85.18-3.91,171.58-3.94,256.76,0-85.18,4-171.58,3.92-256.76,0Z"/>
      </g>
    </g>
  </g>
</svg>
